<?xml version="1.0" encoding="UTF-8"?>
<svg id="Layer_1" data-name="Layer 1" xmlns="http://www.w3.org/2000/svg" viewBox="0 0 200 125">
  <defs>
    <style>
      .cls-1 {
        fill: #f90;
        fill-rule: evenodd;
      }

      .cls-2 {
        fill: #252f3e;
      }
    </style>
  </defs>
  <path class="cls-2" d="M56.36,45.4c0,2.57.27,4.66.73,6.19.53,1.53,1.2,3.2,2.13,5.01.33.56.47,1.11.47,1.6,0,.7-.4,1.39-1.26,2.09l-4.19,2.92c-.6.42-1.2.63-1.73.63-.67,0-1.33-.35-2-.97-.93-1.04-1.73-2.16-2.39-3.27-.67-1.18-1.33-2.5-2.06-4.1-5.19,6.4-11.71,9.59-19.56,9.59-5.59,0-10.04-1.67-13.3-5.01-3.26-3.34-4.92-7.79-4.92-13.35,0-5.91,2-10.71,6.05-14.32,4.06-3.62,9.45-5.42,16.3-5.42,2.26,0,4.59.21,7.05.56s4.99.9,7.65,1.53v-5.08c0-5.28-1.06-8.97-3.13-11.12-2.13-2.16-5.72-3.2-10.84-3.2-2.33,0-4.72.28-7.18.9s-4.86,1.39-7.18,2.36c-1.06.49-1.86.76-2.33.9-.47.14-.8.21-1.06.21-.93,0-1.4-.7-1.4-2.16v-3.41c0-1.11.13-1.95.47-2.43s.93-.97,1.86-1.46c2.33-1.25,5.12-2.29,8.38-3.13,3.26-.9,6.72-1.32,10.38-1.32,7.92,0,13.7,1.88,17.43,5.63,3.66,3.75,5.52,9.45,5.52,17.1v22.53h.13ZM29.36,55.96c2.2,0,4.46-.42,6.85-1.25,2.39-.83,4.52-2.36,6.32-4.45,1.06-1.32,1.86-2.78,2.26-4.45s.67-3.68.67-6.05v-2.92c-1.93-.49-3.99-.9-6.12-1.18s-4.19-.42-6.25-.42c-4.46,0-7.72.9-9.91,2.78-2.2,1.88-3.26,4.52-3.26,7.99,0,3.27.8,5.7,2.46,7.37,1.6,1.74,3.92,2.57,6.98,2.57ZM82.77,63.47c-1.2,0-2-.21-2.53-.7-.53-.42-1-1.39-1.4-2.71L63.21,6.33c-.4-1.39-.6-2.29-.6-2.78,0-1.11.53-1.74,1.6-1.74h6.52c1.26,0,2.13.21,2.59.7.53.42.93,1.39,1.33,2.71l11.18,46.02,10.38-46.02c.33-1.39.73-2.29,1.26-2.71.53-.42,1.46-.7,2.66-.7h5.32c1.26,0,2.13.21,2.66.7.53.42,1,1.39,1.26,2.71l10.51,46.58,11.51-46.58c.4-1.39.86-2.29,1.33-2.71.53-.42,1.4-.7,2.59-.7h6.19c1.06,0,1.66.56,1.66,1.74,0,.35-.07.7-.13,1.11-.07.42-.2.97-.47,1.74l-16.03,53.74c-.4,1.39-.86,2.29-1.4,2.71s-1.4.7-2.53.7h-5.72c-1.26,0-2.13-.21-2.66-.7s-1-1.39-1.26-2.78l-10.31-44.84-10.24,44.77c-.33,1.39-.73,2.29-1.26,2.78-.53.49-1.46.7-2.66.7h-5.72ZM168.25,65.35c-3.46,0-6.92-.42-10.24-1.25-3.33-.83-5.92-1.74-7.65-2.78-1.06-.63-1.8-1.32-2.06-1.95-.27-.63-.4-1.32-.4-1.95v-3.55c0-1.46.53-2.16,1.53-2.16.4,0,.8.07,1.2.21.4.14,1,.42,1.66.7,2.26,1.04,4.72,1.88,7.32,2.43,2.66.56,5.25.83,7.92.83,4.19,0,7.45-.76,9.71-2.29,2.26-1.53,3.46-3.75,3.46-6.6,0-1.95-.6-3.55-1.8-4.87-1.2-1.32-3.46-2.5-6.72-3.62l-9.65-3.13c-4.86-1.6-8.45-3.96-10.64-7.09-2.2-3.06-3.33-6.47-3.33-10.08,0-2.92.6-5.49,1.8-7.72,1.2-2.22,2.79-4.17,4.79-5.7,2-1.6,4.26-2.78,6.92-3.62,2.66-.83,5.45-1.18,8.38-1.18,1.46,0,2.99.07,4.46.28,1.53.21,2.93.49,4.32.76,1.33.35,2.59.7,3.79,1.11,1.2.42,2.13.83,2.79,1.25.93.56,1.6,1.11,2,1.74.4.56.6,1.32.6,2.29v3.27c0,1.46-.53,2.22-1.53,2.22-.53,0-1.4-.28-2.53-.83-3.79-1.81-8.05-2.71-12.77-2.71-3.79,0-6.78.63-8.85,1.95s-3.13,3.34-3.13,6.19c0,1.95.67,3.62,2,4.94,1.33,1.32,3.79,2.64,7.32,3.82l9.45,3.13c4.79,1.6,8.25,3.82,10.31,6.67,2.06,2.85,3.06,6.12,3.06,9.73,0,2.99-.6,5.7-1.73,8.06-1.2,2.36-2.79,4.45-4.86,6.12-2.06,1.74-4.52,2.99-7.38,3.89-2.99.97-6.12,1.46-9.51,1.46Z"/>
  <g>
    <path class="cls-1" d="M180.82,99.14c-21.88,16.89-53.68,25.86-81.02,25.86-38.31,0-72.84-14.81-98.91-39.42-2.06-1.95-.2-4.59,2.26-3.06,28.2,17.1,62.99,27.46,98.98,27.46,24.28,0,50.95-5.28,75.5-16.13,3.66-1.74,6.78,2.5,3.19,5.28Z"/>
    <path class="cls-1" d="M189.93,88.29c-2.79-3.75-18.49-1.81-25.61-.9-2.13.28-2.46-1.67-.53-3.13,12.51-9.18,33.06-6.54,35.45-3.48,2.39,3.13-.67,24.61-12.37,34.9-1.8,1.6-3.53.76-2.73-1.32,2.66-6.88,8.58-22.39,5.79-26.07Z"/>
  </g>
</svg>