<?xml version="1.0" encoding="UTF-8"?>
<svg id="Layer_1" data-name="Layer 1" xmlns="http://www.w3.org/2000/svg" viewBox="0 0 155.58 185.4">
  <defs>
    <style>
      .cls-1 {
        fill: #219bd7;
      }

      .cls-2 {
        fill: #0e4c81;
      }
    </style>
  </defs>
  <path class="cls-2" d="M155.58,65.17c0,15.85-12.89,28.74-28.74,28.74H28.74c-15.85,0-28.74-12.89-28.74-28.74s12.89-28.74,28.74-28.74h5.24c1.84-9.94,7.04-19.01,14.76-25.65C56.8,3.83,67.13,0,77.79,0s20.99,3.83,29.06,10.78c7.71,6.64,12.92,15.71,14.76,25.65h5.24c15.85,0,28.74,12.89,28.74,28.74Z"/>
  <g>
    <path class="cls-1" d="M119.08,124.73c-1.83.99-3.34,2.5-4.33,4.33l-13.47-13.46v-15.06h6.12v12.53l11.68,11.67Z"/>
    <path class="cls-1" d="M54.3,100.53v15.06l-13.47,13.46c-.99-1.83-2.5-3.33-4.33-4.32l11.68-11.67v-12.53h6.12Z"/>
    <path class="cls-1" d="M105.83,145.39v19.15c-.97-.29-2-.45-3.06-.45s-2.09.16-3.06.45v-16.62l-6.5-6.5-9.63-9.63v-31.26h6.12v28.72l4.33,4.33,11.8,11.8Z"/>
    <path class="cls-1" d="M72,100.53v40.08c-.97-.29-1.99-.45-3.06-.45s-2.09.16-3.06.45v-40.08h6.12Z"/>
    <path class="cls-1" d="M124.13,144.77c-5.4,0-9.87-4.03-10.56-9.25-.07-.46-.1-.93-.1-1.41,0-1.82.46-3.55,1.28-5.05.99-1.83,2.5-3.34,4.33-4.33,1.5-.81,3.23-1.27,5.05-1.27,2.08,0,4.03.6,5.67,1.65,2.99,1.88,4.99,5.21,4.99,9.01,0,5.88-4.78,10.66-10.66,10.66Z"/>
    <path class="cls-1" d="M102.77,185.4c-5.88,0-10.66-4.78-10.66-10.66,0-4.81,3.21-8.89,7.6-10.21.97-.29,2-.45,3.06-.45s2.09.16,3.06.45c4.39,1.32,7.6,5.4,7.6,10.21,0,5.88-4.78,10.66-10.66,10.66Z"/>
    <path class="cls-1" d="M68.94,161.48c-5.88,0-10.66-4.78-10.66-10.66,0-3.42,1.62-6.47,4.13-8.42,1.02-.8,2.19-1.41,3.47-1.79.97-.29,1.99-.45,3.06-.45s2.09.16,3.06.45c3.59,1.08,6.39,4,7.29,7.67.2.82.31,1.67.31,2.54,0,5.88-4.78,10.66-10.66,10.66Z"/>
    <path class="cls-1" d="M31.45,144.77c-5.87,0-10.65-4.78-10.65-10.66,0-3.79,1.99-7.13,4.99-9.01,1.64-1.04,3.59-1.64,5.67-1.64,1.82,0,3.55.46,5.05,1.27,1.83.99,3.34,2.49,4.33,4.32.82,1.5,1.28,3.23,1.28,5.06,0,.48-.03.95-.1,1.42-.69,5.21-5.16,9.24-10.56,9.24Z"/>
  </g>
</svg>